<?xml version="1.0" standalone="no"?>
<!DOCTYPE svg PUBLIC "-//W3C//DTD SVG 20010904//EN"
 "http://www.w3.org/TR/2001/REC-SVG-20010904/DTD/svg10.dtd">
<svg version="1.0" xmlns="http://www.w3.org/2000/svg"
 width="124.000000pt" height="124.000000pt" viewBox="0 0 124.000000 124.000000"
 preserveAspectRatio="xMidYMid meet">
<metadata>
Created by potrace 1.11, written by Peter Selinger 2001-2013
</metadata>
<g transform="translate(0.000000,124.000000) scale(0.100000,-0.100000)"
fill="#000000" stroke="none">
<path d="M570 1161 c0 -6 -10 -11 -23 -11 -13 0 -29 -6 -36 -12 -11 -11 -13
-10 -7 2 4 8 1 7 -8 -4 -8 -10 -22 -16 -31 -13 -9 4 -15 1 -15 -8 0 -7 -5 -17
-12 -21 -7 -5 -9 -2 -4 7 4 8 2 7 -6 -2 -7 -9 -17 -17 -23 -18 -5 -2 -9 -7 -7
-12 2 -8 -12 -13 -30 -10 -5 0 -7 -5 -5 -12 1 -6 -4 -11 -11 -9 -8 1 -11 -2
-6 -9 4 -7 1 -17 -7 -23 -8 -6 -14 -18 -14 -26 0 -8 -5 -14 -12 -13 -7 2 -10
-3 -7 -11 3 -8 0 -17 -5 -21 -6 -3 -9 -10 -6 -15 3 -5 1 -11 -4 -15 -6 -3 -8
-12 -5 -19 3 -8 1 -17 -5 -20 -6 -4 -6 -18 -1 -36 6 -21 5 -30 -3 -30 -8 0 -8
-3 -2 -8 6 -4 12 -18 14 -32 1 -14 8 -34 14 -45 6 -11 10 -25 9 -31 -1 -7 5
-14 13 -18 9 -3 13 -10 10 -16 -3 -5 -1 -10 4 -10 6 0 11 -5 11 -11 0 -7 8
-19 19 -28 10 -9 21 -25 23 -36 2 -11 11 -19 19 -17 8 2 11 1 7 -3 -3 -3 0
-18 7 -32 8 -15 11 -31 8 -36 -3 -6 -1 -7 5 -3 8 5 12 -1 12 -18 0 -14 4 -27
8 -30 11 -6 9 -36 -3 -55 -5 -10 -4 -12 3 -7 7 4 12 1 12 -9 0 -24 22 -42 47
-39 12 2 25 -1 28 -6 3 -5 0 -7 -7 -5 -8 3 -22 -2 -33 -11 -11 -8 -14 -13 -7
-9 6 3 12 1 12 -4 0 -6 -6 -11 -12 -12 -7 0 -3 -5 10 -11 23 -12 32 -34 9 -25
-9 3 -12 -4 -11 -22 2 -39 2 -39 28 -37 21 3 23 0 16 -24 -9 -32 2 -56 20 -45
9 5 11 4 6 -3 -4 -7 -2 -12 3 -12 6 0 11 5 11 10 0 7 6 7 19 0 25 -13 34 -13
25 1 -5 8 -1 8 14 0 13 -7 23 -7 27 -1 3 5 13 6 23 3 9 -3 14 -3 10 2 -4 4 -2
15 5 23 9 13 9 14 0 8 -8 -4 -13 -1 -13 8 0 9 0 19 0 24 0 4 10 7 22 7 18 0
22 6 24 37 1 21 -3 38 -8 38 -5 0 -6 -4 -3 -10 4 -6 -1 -7 -11 -3 -15 5 -14 7
3 17 11 6 18 17 15 25 -3 9 0 11 9 6 11 -6 12 -5 2 6 -7 7 -13 20 -12 29 0 11
2 11 6 2 4 -10 9 -10 23 3 11 10 16 24 13 33 -4 8 -2 13 3 10 5 -4 8 11 8 33
-1 21 3 42 8 45 6 4 5 10 -3 15 -11 7 -11 9 2 9 10 0 16 7 15 18 0 9 5 16 12
14 8 -1 11 2 8 7 -6 8 21 71 30 71 3 0 2 -5 -2 -12 -4 -7 -3 -8 5 -4 6 4 9 11
6 15 -7 12 51 82 60 73 5 -4 5 -1 1 6 -4 7 -2 19 4 27 7 8 9 15 5 15 -4 0 -1
7 6 17 8 9 13 18 12 20 -7 8 -2 24 5 19 4 -2 8 4 8 14 0 10 -3 17 -6 15 -3 -2
-5 12 -5 30 0 20 3 31 10 27 5 -3 4 2 -4 11 -10 13 -10 17 -1 17 9 0 10 3 1
13 -6 8 -8 17 -4 20 3 4 1 7 -6 7 -7 0 -9 5 -6 10 3 6 1 10 -6 10 -8 0 -8 4 1
16 11 12 11 15 0 12 -8 -2 -15 3 -16 10 -1 6 -3 15 -4 20 -1 4 -2 10 -1 14 0
4 -8 10 -19 13 -12 4 -17 12 -13 22 4 10 2 14 -4 10 -13 -8 -36 17 -25 28 4 5
1 5 -5 1 -7 -4 -13 -2 -13 3 0 6 -7 11 -15 11 -8 0 -15 3 -15 8 0 7 -37 25
-78 37 -12 3 -20 10 -18 14 3 4 -1 8 -9 8 -8 0 -11 -5 -8 -11 3 -6 1 -6 -7 1
-7 6 -19 9 -28 6 -9 -4 -13 -2 -9 4 8 12 -18 12 -29 0 -4 -4 -13 -2 -21 4 -10
9 -13 8 -13 -1 0 -10 -3 -10 -15 0 -10 9 -15 9 -15 1z m34 -73 c-5 -9 -4 -10
4 -3 13 12 104 7 97 -5 -3 -5 6 -7 19 -6 14 2 27 -3 30 -11 3 -7 11 -12 18
-11 7 2 12 -3 10 -10 -1 -8 1 -11 6 -8 12 7 54 -33 46 -45 -3 -5 0 -8 8 -7 7
2 13 -5 13 -14 0 -9 4 -20 9 -25 5 -5 6 -2 1 7 -8 13 -6 13 7 2 9 -8 14 -20
11 -28 -3 -8 -1 -14 5 -14 6 0 9 -11 8 -25 -2 -13 1 -22 6 -19 5 3 6 -6 2 -22
-5 -18 -3 -25 4 -20 6 4 8 -1 5 -14 -3 -11 -10 -17 -15 -14 -6 4 -5 -4 2 -16
9 -18 9 -21 0 -15 -8 5 -11 3 -8 -6 6 -17 -31 -91 -42 -84 -4 3 -7 -3 -6 -13
0 -9 -4 -16 -11 -15 -7 2 -10 -4 -7 -12 4 -8 1 -15 -5 -15 -6 0 -16 -11 -21
-25 -5 -14 -14 -25 -20 -25 -6 0 -9 -4 -6 -9 3 -5 -1 -14 -10 -21 -8 -7 -12
-20 -9 -28 4 -10 0 -12 -11 -8 -14 5 -15 4 -5 -8 15 -17 7 -36 -15 -36 -12 0
-18 11 -16 31 0 3 -8 11 -20 18 -11 7 -17 8 -14 3 3 -6 -1 -13 -10 -16 -12 -5
-15 -17 -12 -55 1 -27 0 -47 -4 -45 -4 2 -9 0 -13 -5 -3 -6 -12 -8 -20 -5 -8
4 -12 11 -9 16 4 6 0 14 -7 19 -11 7 -11 9 -1 9 9 0 10 5 4 18 -5 9 -7 22 -5
29 7 18 -37 39 -48 22 -4 -7 -6 -16 -3 -20 2 -4 -1 -11 -7 -15 -8 -4 -7 -9 2
-15 11 -7 11 -9 1 -9 -17 0 -54 62 -43 73 5 5 1 17 -10 28 -22 22 -25 44 -7
55 8 5 9 2 5 -10 -5 -12 -2 -16 11 -14 9 2 16 -3 14 -9 -1 -7 2 -13 7 -13 5 0
22 -5 38 -12 40 -16 53 -18 53 -7 0 6 6 7 13 4 6 -4 3 1 -7 9 -11 9 -16 16
-10 16 5 0 1 5 -9 11 -9 6 -14 15 -11 21 4 6 0 14 -7 19 -12 7 -11 9 1 9 13 0
13 1 0 11 -12 9 -13 12 -1 16 11 5 11 7 0 15 -12 8 -11 9 1 6 8 -3 14 -16 15
-31 0 -14 8 -34 18 -44 15 -16 19 -16 27 -3 5 8 8 21 5 28 -3 7 -1 11 4 8 5
-3 8 -21 6 -39 -2 -19 0 -38 3 -43 9 -11 35 -17 30 -7 -2 5 13 26 34 48 27 27
37 34 33 20 -3 -11 2 -5 10 13 14 30 18 32 33 21 14 -11 15 -11 5 1 -15 16
-17 34 -4 26 4 -3 7 6 5 19 -1 14 2 25 7 25 5 0 9 5 9 11 0 5 -4 7 -10 4 -5
-3 -10 -1 -10 4 0 6 6 11 13 11 8 0 7 4 -3 10 -8 5 -10 10 -5 10 6 0 2 5 -7
11 -10 5 -18 17 -18 24 0 8 -4 15 -10 15 -5 0 -10 -9 -10 -19 0 -11 -5 -23
-10 -26 -6 -4 -7 -11 -4 -17 5 -7 2 -8 -6 -3 -10 6 -12 4 -7 -7 3 -9 -1 -25
-8 -36 -8 -10 -11 -23 -7 -27 4 -3 0 -5 -8 -3 -8 2 -14 -3 -12 -10 1 -6 -4
-11 -10 -10 -7 2 -12 -3 -10 -9 1 -7 -2 -13 -8 -13 -13 0 -13 17 0 25 6 4 7
12 4 18 -4 7 -4 9 0 5 10 -8 36 14 29 25 -2 4 2 10 11 13 8 3 13 11 10 18 -3
7 2 19 11 26 18 15 21 44 3 34 -10 -6 -10 -4 0 7 14 16 16 33 2 24 -9 -5 -11
-1 -10 20 1 11 -30 36 -38 31 -4 -2 -8 7 -7 22 0 15 -6 33 -15 40 -10 10 -11
11 -1 6 10 -5 12 -3 5 7 -18 30 -78 99 -86 99 -3 0 -2 -18 2 -40 6 -31 4 -40
-6 -40 -17 0 -19 -20 -1 -21 9 0 9 -2 -1 -6 -6 -2 -10 -9 -6 -14 3 -5 0 -9 -6
-9 -6 0 -9 -4 -5 -9 3 -6 -3 -15 -14 -21 -12 -6 -18 -16 -15 -25 4 -8 2 -15
-4 -15 -5 0 -12 -9 -15 -21 -4 -13 -10 -18 -18 -13 -8 5 -10 3 -5 -5 5 -7 0
-19 -10 -27 -11 -9 -13 -13 -6 -9 10 5 10 1 1 -19 -7 -14 -16 -23 -22 -19 -6
3 -7 1 -3 -5 3 -6 2 -22 -4 -36 -6 -17 -6 -26 0 -26 6 0 10 -4 10 -10 0 -5 -8
-7 -17 -4 -17 5 -17 5 0 -6 20 -13 23 -29 3 -26 -18 2 -47 32 -39 40 4 3 1 6
-6 6 -7 0 -10 4 -7 9 3 5 -1 11 -9 15 -8 3 -15 15 -15 26 0 11 -5 20 -12 20
-6 0 -8 3 -5 6 3 4 2 16 -4 27 -6 10 -7 17 -2 14 5 -4 10 0 10 8 0 8 -3 12 -7
10 -4 -2 -6 12 -6 30 1 19 5 35 9 35 5 0 5 5 2 10 -3 6 -2 10 4 10 6 0 8 7 5
15 -4 8 -1 15 4 15 6 0 9 9 7 20 -2 11 1 19 8 17 6 -1 12 5 12 13 1 8 6 14 13
13 7 -2 11 0 11 5 -3 19 2 33 10 27 6 -3 15 4 21 15 6 11 15 18 21 15 5 -4 9
-1 9 5 0 6 5 8 10 5 6 -3 10 1 10 10 0 9 5 13 11 9 6 -3 15 0 20 7 8 12 11 12
19 -1 6 -9 10 -10 10 -3 0 10 15 18 43 22 5 0 5 -5 1 -11z m80 -279 c-3 -5
-10 -7 -15 -3 -5 3 -7 10 -3 15 3 5 10 7 15 3 5 -3 7 -10 3 -15z m-22 -27 c-7
-2 -10 -8 -7 -12 3 -5 -4 -14 -15 -20 -25 -13 -25 -6 -2 25 9 12 21 20 27 17
5 -3 4 -7 -3 -10z m-42 -61 c0 -10 -28 -41 -37 -41 -3 0 1 8 10 18 10 10 14
22 10 25 -3 4 -1 7 5 7 7 0 12 -4 12 -9z m-153 -126 c-10 -18 -11 -18 -15 -2
-2 9 -8 14 -14 11 -6 -4 -8 -3 -5 2 3 5 15 10 25 10 18 0 19 -3 9 -21z m267
-157 c-3 -4 -9 -8 -15 -8 -5 0 -9 4 -9 8 0 5 7 9 15 9 8 0 12 -4 9 -9z"/>
<path d="M550 526 c0 -2 7 -7 16 -10 8 -3 12 -2 9 4 -6 10 -25 14 -25 6z"/>
</g>
</svg>
